<svg xmlns="http://www.w3.org/2000/svg" viewBox="-15 477 448 448"><path d="M171.8 647.1l95.2 54.1-95.2 54.1V647.1zM433 525v352c0 26.5-21.5 48-48 48H33c-26.5 0-48-21.5-48-48V525c0-26.5 21.5-48 48-48h352c26.5 0 48 21.5 48 48zm-42 176.3s0-59.6-7.6-88.2c-4.2-15.8-16.5-28.2-32.2-32.4C322.9 573 209 573 209 573s-113.9 0-142.2 7.7c-15.7 4.2-28 16.6-32.2 32.4-7.6 28.5-7.6 88.2-7.6 88.2s0 59.6 7.6 88.2c4.2 15.8 16.5 27.7 32.2 31.9C95.1 829 209 829 209 829s113.9 0 142.2-7.7c15.7-4.2 28-16.1 32.2-31.9 7.6-28.5 7.6-88.1 7.6-88.1z"/></svg>