<svg id="Layer_1" xmlns="http://www.w3.org/2000/svg" viewBox="-30 954 448 448"><style>.st0{fill:#fff}</style><path class="st0" d="M156.8 1124.1l95.2 54.1-95.2 54.1v-108.2zM418 1002v352c0 26.5-21.5 48-48 48H18c-26.5 0-48-21.5-48-48v-352c0-26.5 21.5-48 48-48h352c26.5 0 48 21.5 48 48zm-42 176.3s0-59.6-7.6-88.2c-4.2-15.8-16.5-28.2-32.2-32.4-28.3-7.7-142.2-7.7-142.2-7.7s-113.9 0-142.2 7.7c-15.7 4.2-28 16.6-32.2 32.4-7.6 28.5-7.6 88.2-7.6 88.2s0 59.6 7.6 88.2c4.2 15.8 16.5 27.7 32.2 31.9C80.1 1306 194 1306 194 1306s113.9 0 142.2-7.7c15.7-4.2 28-16.1 32.2-31.9 7.6-28.5 7.6-88.1 7.6-88.1z"/></svg>