<?xml version="1.0" encoding="utf-8"?>
<!-- Generator: Adobe Illustrator 19.0.0, SVG Export Plug-In . SVG Version: 6.00 Build 0)  -->
<svg version="1.1" id="Layer_1" xmlns="http://www.w3.org/2000/svg" xmlns:xlink="http://www.w3.org/1999/xlink" x="0px" y="0px"
	 viewBox="-15 477 448 448" style="enable-background:new -15 477 448 448;" xml:space="preserve">
<style type="text/css">
	.st0{fill:#FFFFFF;}
</style>
<path class="st0" d="M433,501.7v398.5c0,13.7-11.1,24.7-24.7,24.7H294.1V751.5h58.2l8.7-67.6h-67v-43.2c0-19.6,5.4-32.9,33.5-32.9
	h35.8v-60.5c-6.2-0.8-27.4-2.7-52.2-2.7c-51.6,0-87,31.5-87,89.4v49.9h-58.4v67.6h58.4V925H9.7C-3.9,925-15,913.9-15,900.3V501.7
	C-15,488.1-3.9,477,9.7,477h398.5C421.9,477,433,488.1,433,501.7z"/>
</svg>
