<?xml version="1.0" encoding="utf-8"?>
<!-- Generator: Adobe Illustrator 19.0.0, SVG Export Plug-In . SVG Version: 6.00 Build 0)  -->
<svg version="1.1" id="Layer_1" xmlns="http://www.w3.org/2000/svg" xmlns:xlink="http://www.w3.org/1999/xlink" x="0px" y="0px"
	 viewBox="-15.1 476.8 448.2 448.1" style="enable-background:new -15.1 476.8 448.2 448.1;" xml:space="preserve">
<path d="M209.1,586c-63.6,0-114.9,51.3-114.9,114.9s51.3,114.9,114.9,114.9S324,764.5,324,700.9S272.7,586,209.1,586z M209.1,775.6
	c-41.1,0-74.7-33.5-74.7-74.7s33.5-74.7,74.7-74.7s74.7,33.5,74.7,74.7S250.2,775.6,209.1,775.6L209.1,775.6z M355.5,581.3
	c0,14.9-12,26.8-26.8,26.8c-14.9,0-26.8-12-26.8-26.8c0-14.8,12-26.8,26.8-26.8S355.5,566.5,355.5,581.3z M431.6,608.5
	c-1.7-35.9-9.9-67.7-36.2-93.9c-26.2-26.2-58-34.4-93.9-36.2c-37-2.1-147.9-2.1-184.9,0c-35.8,1.7-67.6,9.9-93.9,36.1
	c-26.3,26.2-34.4,58-36.2,93.9c-2.1,37-2.1,147.9,0,184.9c1.7,35.9,9.9,67.7,36.2,93.9c26.3,26.2,58,34.4,93.9,36.2
	c37,2.1,147.9,2.1,184.9,0c35.9-1.7,67.7-9.9,93.9-36.2c26.2-26.2,34.4-58,36.2-93.9C433.7,756.3,433.7,645.5,431.6,608.5
	L431.6,608.5z M383.8,833c-7.8,19.6-22.9,34.7-42.6,42.6c-29.5,11.7-99.5,9-132.1,9s-102.7,2.6-132.1-9
	c-19.6-7.8-34.7-22.9-42.6-42.6c-11.7-29.5-9-99.5-9-132.1c0-32.6-2.6-102.7,9-132.1c7.8-19.6,22.9-34.7,42.6-42.6
	c29.5-11.7,99.5-9,132.1-9s102.7-2.6,132.1,9c19.6,7.8,34.7,22.9,42.6,42.6c11.7,29.5,9,99.5,9,132.1
	C392.8,733.5,395.5,803.6,383.8,833z"/>
</svg>
