<?xml version="1.0" encoding="utf-8"?>
<!-- Generator: Adobe Illustrator 19.0.0, SVG Export Plug-In . SVG Version: 6.00 Build 0)  -->
<svg version="1.1" id="Layer_1" xmlns="http://www.w3.org/2000/svg" xmlns:xlink="http://www.w3.org/1999/xlink" x="0px" y="0px"
	 viewBox="-30 954 448 448" style="enable-background:new -30 954 448 448;" xml:space="preserve">
<style type="text/css">
	.st0{fill:#FFFFFF;}
</style>
<path class="st0" d="M156.8,1124.1l95.2,54.1l-95.2,54.1V1124.1z M418,1002v352c0,26.5-21.5,48-48,48H18c-26.5,0-48-21.5-48-48v-352
	c0-26.5,21.5-48,48-48h352C396.5,954,418,975.5,418,1002z M376,1178.3c0,0,0-59.6-7.6-88.2c-4.2-15.8-16.5-28.2-32.2-32.4
	C307.9,1050,194,1050,194,1050s-113.9,0-142.2,7.7c-15.7,4.2-28,16.6-32.2,32.4c-7.6,28.5-7.6,88.2-7.6,88.2s0,59.6,7.6,88.2
	c4.2,15.8,16.5,27.7,32.2,31.9C80.1,1306,194,1306,194,1306s113.9,0,142.2-7.7c15.7-4.2,28-16.1,32.2-31.9
	C376,1237.9,376,1178.3,376,1178.3L376,1178.3z"/>
</svg>
