<?xml version="1.0" encoding="utf-8"?>
<!-- Generator: Adobe Illustrator 19.0.0, SVG Export Plug-In . SVG Version: 6.00 Build 0)  -->
<svg version="1.1" id="Layer_1" xmlns="http://www.w3.org/2000/svg" xmlns:xlink="http://www.w3.org/1999/xlink" x="0px" y="0px"
	 viewBox="-15 477 448 448" style="enable-background:new -15 477 448 448;" xml:space="preserve">
<path d="M171.8,647.1l95.2,54.1l-95.2,54.1V647.1z M433,525v352c0,26.5-21.5,48-48,48H33c-26.5,0-48-21.5-48-48V525
	c0-26.5,21.5-48,48-48h352C411.5,477,433,498.5,433,525z M391,701.3c0,0,0-59.6-7.6-88.2c-4.2-15.8-16.5-28.2-32.2-32.4
	C322.9,573,209,573,209,573s-113.9,0-142.2,7.7c-15.7,4.2-28,16.6-32.2,32.4C27,641.6,27,701.3,27,701.3s0,59.6,7.6,88.2
	c4.2,15.8,16.5,27.7,32.2,31.9C95.1,829,209,829,209,829s113.9,0,142.2-7.7c15.7-4.2,28-16.1,32.2-31.9
	C391,760.9,391,701.3,391,701.3L391,701.3z"/>
</svg>
